PathFileType	4	(X/Y/Z)	stereocamera_test1.trc
DataRate	CameraRate	NumFrames	NumMarkers	Units	OrigDataRate	OrigDataStartFrame	OrigNumFrames
28.773259820813234	28.773259820813234	15	15	mm	28.773259820813234	126	335
Frame#	Time	JOINT_NECK			JOINT_RIGHT_CLAVICLE			JOINT_LEFT_CLAVICLE			JOINT_RIGHT_SHOULDER			JOINT_LEFT_SHOULDER			JOINT_RIGHT_ELBOW			JOINT_LEFT_ELBOW			JOINT_LEFT_WRIST			JOINT_RIGHT_WRIST			JOINT_SPINE_3			JOINT_SPINE_2			JOINT_SPINE_1			JOINT_PELVIS			JOINT_RIGHT_HIP			JOINT_LEFT_HIP
		X1	Y1	Z1	X2	Y2	Z2	X3	Y3	Z3	X4	Y4	Z4	X5	Y5	Z5	X6	Y6	Z6	X7	Y7	Z7	X8	Y8	Z8	X9	Y9	Z9	X10	Y10	Z10	X11	Y11	Z11	X12	Y12	Z12	X13	Y13	Z13	X14	Y14	Z14	X15	Y15	Z15

126	1749651075.395000	159.530520	8.596584	890.274760	92.579320	1.585797	948.109450	232.742640	18.242642	900.140900	18.335324	-9.730652	991.456800	184.635950	15.877567	550.096400	-147.119800	-187.833640	920.788170	387.521360	-171.385140	665.128500	221.692800	6.138489	611.334700	-131.501450	-95.583335	791.845900	155.127670	-81.704640	875.421000	147.841070	-161.978240	834.285500	147.448610	-242.603510	817.833800	144.145550	-318.118240	799.508800	63.405280	-322.100130	829.597300	221.990910	-323.270800	792.388740
127	1749651075.428000	161.649760	8.172065	890.617600	95.651970	-1.121759	944.812060	238.324090	19.813657	906.556370	20.220913	-12.262568	985.145400	191.296200	17.300628	565.939660	-149.687600	-194.192400	960.292200	390.825270	-176.246520	668.859960	228.720680	11.918642	625.850400	-142.976210	-112.453700	781.833600	157.238900	-81.625030	875.620370	151.102440	-165.417760	850.829240	145.428140	-243.335040	818.372100	141.854390	-320.380240	800.131560	61.537060	-325.347240	829.181400	221.282940	-321.931270	792.779560
128	1749651075.462000	162.922070	6.829307	889.247660	97.387400	-0.428125	944.406700	240.778000	15.762270	906.455160	22.253625	-10.608703	983.084740	201.368320	15.413210	593.740200	-148.758700	-201.459240	983.796950	393.049150	-182.057780	673.984770	236.282260	16.157530	640.927500	-153.199510	-127.799320	756.780900	158.318800	-83.915830	874.944030	149.518490	-166.471500	846.767070	141.803320	-243.983690	819.280500	138.236640	-322.134050	801.117960	54.400500	-333.550130	834.313330	220.542710	-319.095080	794.234400
129	1749651075.495000	163.056940	1.209468	887.242440	97.878070	-7.470116	941.430200	241.204300	10.266438	903.067500	22.027347	-16.813263	978.850070	210.651900	12.145318	617.963000	-146.009270	-196.834670	996.482000	390.566900	-183.684200	677.850660	243.395100	16.514360	654.946200	-161.571730	-144.631550	734.234870	158.513750	-87.737190	872.660160	148.318340	-167.121410	843.410970	139.481200	-244.460460	819.783570	136.132340	-319.277440	802.744000	49.697854	-334.172700	839.615640	219.632160	-315.570350	795.201900
130	1749651075.529000	162.329570	-0.882804	884.784940	97.854390	-9.586871	941.043560	238.457530	6.748199	901.782800	21.993525	-18.689781	974.116860	218.425210	10.921337	640.873250	-137.604300	-181.631700	1012.754900	390.545700	-185.659500	680.649160	248.066710	16.875960	668.736400	-178.937200	-167.100280	769.008340	158.678930	-87.955500	873.286400	147.538110	-167.420070	841.294940	140.538140	-244.588140	819.417900	137.368780	-319.211600	802.957700	49.178503	-337.358240	842.770600	223.451500	-312.020720	796.477400
131	1749651075.562000	162.539750	-0.553757	884.353040	97.591005	-10.472417	941.404000	238.584770	7.287741	899.837000	22.598274	-19.656077	973.825630	225.983870	12.535840	661.203900	-139.932540	-174.391570	1025.025400	389.982820	-187.358260	683.465540	251.809780	13.387352	680.520950	-196.301620	-185.657320	765.109700	158.628970	-87.739930	873.839900	147.195520	-165.299340	840.969100	139.193100	-242.330540	819.092200	136.357750	-317.336620	803.911750	46.921212	-335.134630	847.700700	222.448270	-311.948000	794.345300
132	1749651075.595000	163.491580	4.102320	885.455670	99.956180	-5.585536	942.059300	239.077750	12.951076	901.172200	24.080949	-16.252652	976.001860	231.944500	17.619327	676.073500	-142.353580	-171.953920	1023.445200	390.371920	-189.605980	685.901640	253.893880	9.425372	689.573760	-212.730350	-205.112190	765.812800	158.622000	-82.760880	875.150800	147.049190	-163.779260	840.976540	140.666780	-240.559900	817.939800	135.875480	-316.223860	804.572700	44.298325	-337.944120	856.027300	225.891740	-312.896820	800.533000
133	1749651075.629000	163.777440	5.225241	885.549840	98.808440	-4.621297	943.733400	238.954450	14.459804	900.674600	25.021926	-14.363319	977.382360	235.507770	18.200368	685.236500	-146.205400	-172.485370	1013.051500	393.048700	-191.009920	687.640100	256.303800	2.443850	693.504750	-225.296000	-217.818690	763.312460	158.501010	-81.741944	875.622100	147.035000	-162.916840	841.165900	139.570440	-239.726300	817.905900	133.649470	-316.244720	806.396400	43.216206	-338.052060	861.288960	224.418130	-311.804900	796.049400
134	1749651075.662000	163.478290	9.554774	889.634200	97.980864	-1.433149	946.189900	236.531170	20.231962	901.884260	25.380952	-11.150628	977.054360	236.058300	22.729754	690.307500	-151.921260	-174.819110	1006.058600	394.390820	-191.193860	689.241950	259.501550	-3.446087	694.055200	-231.132540	-222.774070	765.586600	156.048460	-78.941010	877.008260	147.179070	-162.497940	842.037860	138.964370	-241.635980	818.640700	132.283020	-318.456320	807.137250	41.804258	-340.047150	863.945800	222.160980	-316.571180	795.468700
135	1749651075.696000	164.158580	10.834873	888.359960	97.371160	0.446200	947.591100	235.817780	21.018341	888.777850	23.470748	-9.343564	977.881500	237.502590	23.289315	685.072400	-152.076320	-174.519430	1003.019600	395.556400	-192.655740	691.411600	262.438060	-10.445103	684.218470	-232.562000	-221.014020	773.941640	156.781020	-79.692490	876.744400	147.432610	-162.595330	843.381600	138.673040	-243.217530	819.293200	133.676890	-321.719000	805.562440	43.110326	-342.055470	862.049160	222.617070	-321.103630	796.177000
136	1749651075.729000	164.138590	7.568598	885.677500	96.877560	-1.211747	946.718200	236.367700	16.395360	891.644800	22.366863	-8.186951	977.865000	235.479560	17.322183	674.126500	-152.528840	-175.889280	1006.385000	398.725450	-194.086210	692.735850	265.339700	-20.282500	669.168400	-227.059190	-208.752770	771.119600	157.352480	-82.902180	876.022040	147.414430	-164.898040	842.737000	140.973260	-246.635270	820.012150	134.819700	-323.897060	804.568300	44.284653	-344.748140	859.762300	224.887730	-323.066650	798.211460
137	1749651075.763000	160.782920	3.137484	887.289460	91.270870	-4.999086	947.513760	234.261100	10.702401	894.493500	14.759406	-13.418362	978.635000	227.466970	13.780273	650.034840	-145.643140	-170.023800	996.069000	399.866760	-194.695140	688.725230	268.973080	-32.145448	642.102000	-227.825580	-198.161290	803.961500	155.190690	-87.357820	875.196040	147.373770	-168.588700	842.064860	140.367200	-248.894970	821.354270	135.696660	-325.024070	804.282550	45.590400	-347.443460	854.614140	227.196890	-323.626550	799.452300
138	1749651075.796000	156.713000	-0.507921	888.621800	87.641220	-7.599592	947.674700	230.376700	4.563302	896.491350	8.944612	-13.041571	981.947840	214.560610	7.870726	618.063900	-144.738670	-172.293200	1010.321600	405.468880	-195.398510	680.641200	277.222400	-45.255080	612.818960	-205.603180	-172.661050	788.607240	151.302950	-90.227360	874.974850	145.081520	-171.112780	842.732500	139.900670	-250.203550	822.382750	136.221130	-325.531240	804.372900	47.443733	-347.889800	850.819350	226.416840	-322.917820	796.732700
139	1749651075.830000	154.702070	-2.191380	889.502600	85.549760	-9.126544	947.358900	228.091100	3.330350	898.420100	8.009841	-14.529526	983.438400	200.905440	5.887821	585.549800	-149.290960	-183.539330	991.958260	404.486570	-192.556800	666.092900	288.054670	-59.643783	588.672900	-188.412650	-153.802920	800.159900	151.375950	-89.435070	875.129300	143.681480	-170.348260	844.046530	139.498190	-248.357860	822.245540	136.659770	-323.719800	805.453000	48.092764	-342.981070	849.950800	224.796250	-320.662200	797.125460
140	1749651075.863000	153.944360	-2.967969	890.026700	84.679730	-9.809792	946.996800	229.125340	3.147081	897.368130	6.825039	-16.051099	983.841900	220.001800	6.129317	650.119840	-154.151040	-191.677870	986.505100	390.583130	-186.658950	637.804030	301.184480	-79.704350	563.050870	-174.696030	-135.345320	808.626100	151.657850	-90.772636	874.511300	145.052780	-169.162230	842.920060	139.246240	-246.861190	822.113600	136.842800	-322.332080	806.205330	45.180183	-339.341670	843.146500	229.018170	-319.651000	798.217300
